<?xml version="1.0" encoding="UTF-8"?>
<!DOCTYPE svg PUBLIC "-//W3C//DTD SVG 1.1//EN" "http://www.w3.org/Graphics/SVG/1.1/DTD/svg11.dtd">
<svg xmlns="http://www.w3.org/2000/svg" version="1.1" width="512px" height="512px" style="shape-rendering:geometricPrecision; text-rendering:geometricPrecision; image-rendering:optimizeQuality; fill-rule:evenodd; clip-rule:evenodd" xmlns:xlink="http://www.w3.org/1999/xlink">
<g><path style="opacity:0.958" fill="#000000" d="M 168.5,14.5 C 186.541,13.0779 202.708,17.7445 217,28.5C 226.014,40.2045 230.681,53.5379 231,68.5C 231.499,74.4908 231.666,80.4908 231.5,86.5C 241.172,86.3335 250.839,86.5002 260.5,87C 283.312,90.8105 297.479,103.977 303,126.5C 303.667,168.5 303.667,210.5 303,252.5C 297.5,280.667 280.667,297.5 252.5,303C 221.167,303.667 189.833,303.667 158.5,303C 141.601,300.647 126.267,294.48 112.5,284.5C 111.675,288.122 111.175,291.789 111,295.5C 109.833,299.333 107.333,301.833 103.5,303C 76.5,303.667 49.5,303.667 22.5,303C 18.9421,301.108 16.4421,298.275 15,294.5C 14.8333,261.5 14.6667,228.5 14.5,195.5C 14.3433,161.441 14.8433,127.441 16,93.5C 17.668,89.8345 20.5013,87.6678 24.5,87C 50.1667,86.3333 75.8333,86.3333 101.5,87C 105.843,88.0095 109.01,90.5095 111,94.5C 111.499,99.4889 111.666,104.489 111.5,109.5C 132.958,107.547 146.792,96.2136 153,75.5C 157.173,58.7674 159.173,41.7674 159,24.5C 160.35,19.3193 163.517,15.9859 168.5,14.5 Z M 183.5,40.5 C 192.834,40.7401 199.334,45.0735 203,53.5C 204.732,58.3504 205.732,63.3504 206,68.5C 206.333,79.8333 206.667,91.1667 207,102.5C 208.061,105.562 209.894,108.062 212.5,110C 229.128,111.031 245.795,112.031 262.5,113C 268.943,115.777 273.777,120.277 277,126.5C 278.65,167.774 278.983,209.107 278,250.5C 274.167,265 265,274.167 250.5,278C 219.167,278.667 187.833,278.667 156.5,278C 144.688,275.926 134.354,270.926 125.5,263C 121.286,260.726 116.953,258.726 112.5,257C 111.503,216.239 111.17,175.406 111.5,134.5C 145.205,132.07 167.038,114.737 177,82.5C 180.704,68.7366 182.871,54.7366 183.5,40.5 Z M 39.5,111.5 C 55.1667,111.5 70.8333,111.5 86.5,111.5C 86.5,167.167 86.5,222.833 86.5,278.5C 70.8333,278.5 55.1667,278.5 39.5,278.5C 39.5,222.833 39.5,167.167 39.5,111.5 Z"/></g>
<g><path style="opacity:0.958" fill="#000000" d="M 336.5,206.5 C 347.033,206.608 357.366,208.108 367.5,211C 378.168,215.337 388.502,220.17 398.5,225.5C 398.063,220.588 398.896,215.922 401,211.5C 402.952,209.106 405.452,207.606 408.5,207C 434.167,206.333 459.833,206.333 485.5,207C 489.843,208.01 493.01,210.51 495,214.5C 495.667,281.5 495.667,348.5 495,415.5C 493.833,419.333 491.333,421.833 487.5,423C 460.5,423.667 433.5,423.667 406.5,423C 402.942,421.108 400.442,418.275 399,414.5C 398.501,409.845 398.334,405.179 398.5,400.5C 377.988,402.842 364.488,413.842 358,433.5C 353.484,451.196 351.151,469.196 351,487.5C 349.833,491.333 347.333,493.833 343.5,495C 324.643,497.579 307.809,493.079 293,481.5C 287.752,475.004 284.085,467.67 282,459.5C 279.972,447.587 278.806,435.587 278.5,423.5C 266.438,423.915 254.438,423.415 242.5,422C 222.026,415.528 210.192,401.694 207,380.5C 206.333,365.833 206.333,351.167 207,336.5C 210.014,327.937 215.847,325.103 224.5,328C 227.333,329.5 229.5,331.667 231,334.5C 231.333,349.167 231.667,363.833 232,378.5C 234.323,388.156 240.157,394.656 249.5,398C 264.167,398.333 278.833,398.667 293.5,399C 297.066,399.7 299.9,401.533 302,404.5C 303.345,418.417 304.345,432.417 305,446.5C 305.505,460.884 312.838,468.884 327,470.5C 327.413,453.357 330.413,436.691 336,420.5C 347.659,392.907 368.492,377.907 398.5,375.5C 398.833,334.828 398.5,294.161 397.5,253.5C 386.874,248.187 376.541,242.354 366.5,236C 363.226,234.798 359.893,233.798 356.5,233C 348.436,232.165 340.436,231.165 332.5,230C 326.108,224.816 324.942,218.65 329,211.5C 331.17,209.177 333.67,207.51 336.5,206.5 Z M 423.5,231.5 C 439.167,231.5 454.833,231.5 470.5,231.5C 470.5,287.167 470.5,342.833 470.5,398.5C 454.833,398.5 439.167,398.5 423.5,398.5C 423.5,342.833 423.5,287.167 423.5,231.5 Z"/></g>
</svg>
