<?xml version="1.0" standalone="no"?>
<!DOCTYPE svg PUBLIC "-//W3C//DTD SVG 20010904//EN"
 "http://www.w3.org/TR/2001/REC-SVG-20010904/DTD/svg10.dtd">
<svg version="1.0" xmlns="http://www.w3.org/2000/svg"
 width="512.000000pt" height="512.000000pt" viewBox="0 0 512.000000 512.000000"
 preserveAspectRatio="xMidYMid meet">

<g transform="translate(0.000000,512.000000) scale(0.100000,-0.100000)"
fill="#000000" stroke="none">
<path d="M2673 5099 c-127 -16 -254 -58 -344 -112 -30 -18 -63 -38 -74 -44
-11 -7 -182 -42 -380 -78 -446 -82 -508 -96 -621 -136 -481 -170 -833 -572
-909 -1039 -26 -162 -15 -403 24 -536 9 -30 6 -35 -81 -120 -144 -143 -213
-263 -260 -450 -32 -127 -31 -353 0 -513 92 -460 372 -938 783 -1336 319 -309
670 -532 1025 -651 191 -64 260 -75 479 -81 191 -4 205 -3 300 21 110 29 214
75 288 129 27 19 208 190 402 381 l352 345 6 -132 c9 -235 70 -381 222 -532
99 -99 165 -142 277 -183 68 -25 84 -27 243 -27 165 0 172 1 240 29 233 97
379 273 452 546 16 59 18 160 21 1170 3 1150 2 1207 -40 1399 -43 202 -159
480 -283 681 -174 279 -450 580 -730 791 -463 351 -988 531 -1392 478z m373
-314 c422 -87 918 -401 1260 -798 123 -143 260 -349 334 -502 64 -131 115
-265 101 -265 -5 0 -33 11 -62 24 -123 56 -126 56 -1163 56 l-955 0 -37 57
c-140 220 -245 469 -285 683 -18 95 -16 282 5 359 72 278 285 419 612 406 61
-2 146 -11 190 -20z m-1246 -243 c0 -5 -264 -269 -586 -588 l-587 -579 6 140
c4 111 11 159 32 229 46 159 124 292 239 414 90 94 178 160 296 221 127 66
192 86 410 131 102 21 186 39 188 39 1 1 2 -3 2 -7z m151 -579 c55 -301 215
-643 438 -938 114 -151 228 -273 693 -741 453 -455 500 -506 528 -566 38 -82
50 -151 50 -299 l0 -117 -463 -453 c-501 -491 -506 -496 -657 -536 -94 -25
-293 -23 -427 6 -710 150 -1491 870 -1733 1599 -59 178 -75 266 -75 422 1 148
20 239 72 330 28 49 110 150 122 150 4 0 30 -33 57 -72 64 -95 218 -249 317
-316 158 -109 364 -189 545 -213 48 -6 92 -13 98 -14 6 -2 23 -28 37 -58 77
-157 282 -263 457 -236 86 13 124 27 188 69 257 172 269 545 23 730 -109 82
-272 112 -397 72 -115 -36 -218 -121 -269 -222 -29 -58 -38 -60 -152 -35 -124
26 -252 80 -353 148 -102 70 -235 215 -295 323 l-29 52 595 590 594 590 8 -77
c4 -42 17 -127 28 -188z m2541 -974 c144 -31 251 -131 306 -288 15 -41 17
-150 19 -1003 4 -1063 5 -1038 -62 -1175 -20 -40 -56 -93 -82 -118 -139 -139
-362 -150 -531 -26 -54 40 -124 135 -154 209 -22 56 -23 66 -28 557 -6 478 -7
503 -28 573 -29 94 -79 194 -133 262 -23 30 -259 272 -523 538 l-480 482 822
0 c570 0 837 -3 874 -11z m-2464 -509 c69 -43 92 -132 51 -200 -27 -43 -44
-57 -90 -70 -52 -14 -96 -2 -139 39 -49 46 -59 94 -35 157 32 85 135 121 213
74z"/>
<path d="M4250 1275 l0 -525 150 0 150 0 0 525 0 525 -150 0 -150 0 0 -525z"/>
</g>
</svg>
