<?xml version="1.0" standalone="no"?>
<!DOCTYPE svg PUBLIC "-//W3C//DTD SVG 20010904//EN"
 "http://www.w3.org/TR/2001/REC-SVG-20010904/DTD/svg10.dtd">
<svg version="1.0" xmlns="http://www.w3.org/2000/svg"
 width="512.000000pt" height="512.000000pt" viewBox="0 0 512.000000 512.000000"
 preserveAspectRatio="xMidYMid meet">

<g transform="translate(0.000000,512.000000) scale(0.100000,-0.100000)"
fill="#000000" stroke="none">
<path d="M635 5101 c-22 -10 -52 -31 -67 -47 -52 -56 -58 -87 -58 -294 l0
-190 -62 0 c-227 -1 -349 -257 -204 -426 46 -54 110 -84 196 -91 l70 -6 0
-172 0 -172 -67 -7 c-93 -9 -165 -46 -208 -105 -80 -110 -69 -245 27 -340 49
-48 84 -63 168 -70 l75 -6 3 -177 2 -178 -55 0 c-116 0 -217 -67 -255 -167
-25 -68 -25 -119 0 -185 39 -102 139 -168 256 -168 l54 0 -2 -177 -3 -178 -75
-6 c-84 -7 -119 -22 -168 -70 -96 -95 -107 -230 -27 -340 43 -59 115 -96 208
-105 l67 -7 0 -172 0 -172 -70 -6 c-86 -7 -150 -37 -196 -91 -145 -169 -23
-425 204 -426 l62 0 0 -192 c0 -213 8 -245 66 -300 67 -62 -64 -58 1842 -58
1123 0 1758 4 1793 10 152 28 283 144 337 298 15 42 17 147 19 1038 l4 992
107 4 c115 4 145 14 196 65 66 65 66 59 66 579 l0 471 -24 45 -24 46 24 48 24
47 0 469 c0 521 1 510 -68 581 -47 48 -110 67 -224 67 -87 0 -88 0 -94 28 -25
101 -120 225 -211 275 -112 60 -3 57 -1918 57 -1682 0 -1752 -1 -1790 -19z
m675 -2541 l0 -2410 -307 0 c-271 0 -309 2 -325 17 -16 14 -18 35 -18 200 l0
183 58 0 c68 0 142 31 189 80 95 98 97 250 4 353 -45 50 -102 76 -186 84 l-65
6 0 172 0 172 58 7 c91 11 125 23 171 63 184 157 75 452 -166 453 l-63 0 0
180 0 180 53 0 c233 2 353 262 199 432 -49 55 -104 80 -184 86 l-68 5 0 178 0
179 63 0 c74 0 129 23 180 74 52 51 69 91 75 167 10 147 -92 257 -255 275
l-63 7 0 172 0 172 66 6 c161 15 262 128 252 278 -10 140 -120 239 -264 239
l-54 0 0 182 c0 155 2 184 17 200 15 17 38 18 325 18 l308 0 0 -2410z m2940
2382 c63 -33 115 -86 142 -146 l23 -51 0 -2185 0 -2185 -23 -51 c-27 -60 -79
-113 -142 -146 l-45 -23 -1372 -3 -1373 -2 0 2410 0 2410 1373 -2 1372 -3 45
-23z m514 -353 l26 -20 0 -449 c0 -535 11 -491 -129 -498 l-91 -4 0 496 0 496
84 0 c69 0 88 -4 110 -21z m-3968 -203 c26 -26 34 -42 34 -70 0 -47 -25 -85
-67 -102 -34 -15 -281 -20 -342 -8 -68 14 -108 93 -77 152 30 59 43 62 239 62
l179 0 34 -34z m-57 -842 c48 -10 91 -58 91 -100 0 -46 -22 -87 -55 -102 -17
-8 -86 -12 -200 -12 -172 0 -174 0 -204 26 -71 59 -40 167 54 187 32 7 280 8
314 1z m4031 -94 c19 -19 20 -33 20 -469 l0 -450 -26 -20 c-22 -17 -41 -21
-110 -21 l-84 0 0 490 0 490 90 0 c77 0 93 -3 110 -20z m-3969 -818 c40 -45
40 -99 0 -144 l-29 -33 -170 -3 c-201 -4 -233 4 -259 65 -13 33 -14 43 -2 78
24 68 53 76 257 73 l174 -3 29 -33z m-26 -854 c33 -15 55 -56 55 -102 0 -49
-46 -93 -105 -102 -77 -11 -317 0 -343 16 -59 39 -65 129 -11 174 30 26 32 26
204 26 114 0 183 -4 200 -12z m-12 -872 c42 -17 67 -55 67 -102 0 -28 -8 -44
-34 -70 l-34 -34 -179 0 c-196 0 -209 3 -239 62 -20 39 -12 88 22 121 33 33
40 34 217 36 105 1 157 -3 180 -13z"/>
<path d="M2043 4380 c-84 -17 -157 -83 -188 -169 -23 -66 -23 -1245 1 -1313
20 -61 73 -121 132 -150 l47 -23 905 0 905 0 49 25 c27 14 64 43 83 65 64 75
64 74 61 761 l-3 619 -23 45 c-32 61 -58 87 -117 118 l-50 27 -880 2 c-484 0
-899 -3 -922 -7z m1795 -160 c52 -35 52 -32 52 -664 0 -650 1 -639 -63 -669
-32 -16 -111 -17 -886 -17 -946 0 -908 -3 -936 64 -21 50 -22 1189 -2 1239 13
29 34 46 77 61 8 2 402 4 875 3 743 -2 863 -4 883 -17z"/>
<path d="M2231 3701 c-25 -25 -35 -76 -29 -148 4 -46 10 -61 32 -80 33 -28 56
-29 90 -2 25 19 26 25 26 113 0 84 -2 95 -23 114 -29 27 -71 28 -96 3z"/>
<path d="M3552 3700 c-20 -19 -22 -31 -22 -115 0 -89 1 -95 26 -114 34 -27 57
-26 89 2 46 39 48 185 3 227 -28 26 -68 26 -96 0z"/>
<path d="M2731 3593 c-108 -91 113 -241 284 -193 63 18 131 63 150 100 14 27
15 37 4 61 -23 57 -67 63 -125 19 -69 -52 -143 -52 -209 0 -43 34 -73 38 -104
13z"/>
</g>
</svg>
