<?xml version="1.0" standalone="no"?>
<!DOCTYPE svg PUBLIC "-//W3C//DTD SVG 20010904//EN"
 "http://www.w3.org/TR/2001/REC-SVG-20010904/DTD/svg10.dtd">
<svg version="1.0" xmlns="http://www.w3.org/2000/svg"
 width="512.000000pt" height="512.000000pt" viewBox="0 0 512.000000 512.000000"
 preserveAspectRatio="xMidYMid meet">

<g transform="translate(0.000000,512.000000) scale(0.100000,-0.100000)"
fill="#000000" stroke="none">
<path d="M2915 5106 c-139 -32 -238 -89 -332 -190 -72 -77 -104 -130 -140
-232 -26 -75 -27 -90 -31 -301 l-4 -222 -666 -3 c-650 -3 -668 -4 -702 -23
-19 -12 -43 -36 -55 -55 -19 -34 -20 -52 -23 -702 l-3 -666 -222 -4 c-217 -4
-224 -4 -307 -34 -106 -37 -181 -86 -257 -168 -72 -77 -104 -130 -140 -232
-24 -69 -27 -94 -27 -199 0 -105 3 -129 26 -193 61 -170 169 -293 321 -366 51
-24 116 -49 145 -55 29 -6 145 -11 257 -11 l204 0 3 -674 c3 -663 3 -675 24
-702 11 -15 33 -37 48 -48 27 -21 38 -21 792 -24 751 -2 765 -2 804 18 26 13
47 34 60 60 19 36 20 58 20 312 0 201 4 287 14 325 65 244 372 326 550 147 23
-22 52 -63 66 -90 25 -48 25 -53 30 -361 5 -295 6 -313 26 -339 11 -15 33 -37
48 -48 27 -21 38 -21 792 -24 751 -2 765 -2 804 18 26 13 47 34 60 60 20 39
20 53 18 804 -3 754 -3 765 -24 792 -11 15 -33 37 -48 48 -26 20 -44 21 -339
26 -308 5 -313 5 -361 30 -154 78 -225 256 -166 414 24 63 81 132 136 167 69
42 123 49 412 49 254 0 276 1 312 20 26 13 47 34 60 60 20 39 20 53 18 804 -3
754 -3 765 -24 792 -11 15 -33 37 -48 48 -27 21 -39 21 -702 24 l-674 3 0 204
c0 112 -5 228 -11 257 -6 29 -31 94 -55 145 -99 207 -302 340 -534 349 -59 2
-118 -1 -155 -10z m212 -300 c95 -25 174 -92 215 -181 22 -48 23 -63 28 -355
5 -292 6 -307 27 -340 46 -74 3 -70 752 -70 l671 0 0 -574 0 -574 -227 -4
c-216 -4 -232 -5 -301 -30 -170 -61 -293 -169 -366 -321 -52 -108 -66 -168
-66 -281 0 -172 61 -319 184 -442 84 -84 175 -137 281 -164 66 -17 111 -20
287 -20 l208 0 0 -575 0 -575 -575 0 -575 0 0 208 c0 176 -3 221 -20 287 -27
106 -80 197 -164 281 -123 123 -270 184 -442 184 -113 0 -173 -14 -281 -66
-152 -73 -260 -196 -321 -366 -25 -69 -26 -85 -30 -300 l-4 -228 -574 0 -574
0 0 671 c0 749 4 706 -70 752 -33 21 -48 22 -340 27 -292 5 -307 6 -355 28
-165 76 -238 270 -162 436 35 75 80 121 155 158 l66 33 306 5 c334 5 337 6
377 67 17 25 18 79 23 703 l5 675 677 5 c665 5 677 5 705 26 60 44 63 61 63
365 0 306 5 339 63 426 53 80 165 141 262 142 22 1 64 -5 92 -13z"/>
</g>
</svg>
