<?xml version="1.0" standalone="no"?>
<!DOCTYPE svg PUBLIC "-//W3C//DTD SVG 20010904//EN"
 "http://www.w3.org/TR/2001/REC-SVG-20010904/DTD/svg10.dtd">
<svg version="1.0" xmlns="http://www.w3.org/2000/svg"
 width="512.000000pt" height="512.000000pt" viewBox="0 0 512.000000 512.000000"
 preserveAspectRatio="xMidYMid meet">

<g transform="translate(0.000000,512.000000) scale(0.100000,-0.100000)"
fill="#000000" stroke="none">
<path d="M1053 5110 c-176 -25 -367 -98 -519 -200 -101 -68 -256 -223 -324
-324 -76 -114 -137 -249 -172 -384 -29 -110 -31 -128 -31 -297 0 -169 2 -187
31 -297 57 -219 160 -397 321 -559 413 -415 1048 -476 1537 -149 43 29 122 96
175 149 415 413 476 1048 149 1537 -68 101 -223 256 -324 324 -197 132 -406
198 -641 205 -77 2 -168 0 -202 -5z m389 -319 c322 -84 571 -334 660 -662 32
-120 32 -328 0 -448 -90 -334 -346 -585 -679 -668 -106 -27 -324 -24 -431 5
-334 90 -586 346 -669 679 -23 94 -23 322 0 416 89 358 369 622 732 693 96 19
287 11 387 -15z"/>
<path d="M840 4332 c-124 -62 -98 -253 37 -278 105 -20 199 81 171 184 -25 92
-123 137 -208 94z"/>
<path d="M1460 4332 c-107 -53 -107 -211 0 -264 98 -50 210 21 210 132 0 81
-67 150 -145 150 -16 0 -46 -8 -65 -18z"/>
<path d="M810 3761 c-48 -26 -83 -93 -75 -146 8 -53 35 -93 106 -160 107 -99
226 -145 374 -145 158 0 292 57 396 167 67 72 79 96 79 154 0 102 -92 170
-191 140 -26 -8 -52 -28 -80 -61 -112 -132 -297 -134 -404 -4 -20 24 -50 51
-65 59 -39 20 -98 19 -140 -4z"/>
<path d="M3743 5110 c-176 -25 -367 -98 -519 -200 -101 -68 -256 -223 -324
-324 -76 -114 -137 -249 -172 -384 -29 -110 -31 -128 -31 -297 0 -169 2 -187
31 -297 57 -219 160 -397 321 -559 413 -415 1048 -476 1537 -149 43 29 122 96
175 149 415 413 476 1048 149 1537 -68 101 -223 256 -324 324 -197 132 -406
198 -641 205 -77 2 -168 0 -202 -5z m389 -319 c322 -84 571 -334 660 -662 32
-120 32 -328 0 -448 -90 -334 -346 -585 -679 -668 -106 -27 -324 -24 -431 5
-334 90 -586 346 -669 679 -23 94 -23 322 0 416 89 358 369 622 732 693 96 19
287 11 387 -15z"/>
<path d="M3525 4331 c-42 -26 -61 -50 -73 -93 -27 -100 63 -201 164 -185 74
12 124 73 124 149 0 111 -124 186 -215 129z"/>
<path d="M4150 4332 c-50 -25 -80 -75 -80 -132 0 -57 30 -107 80 -132 98 -50
210 21 210 132 0 81 -67 150 -145 150 -16 0 -46 -8 -65 -18z"/>
<path d="M3518 3689 c-43 -22 -78 -81 -78 -129 0 -50 35 -107 80 -130 37 -19
58 -20 385 -20 327 0 348 1 385 20 45 23 80 80 80 130 0 50 -35 107 -80 130
-37 19 -58 20 -387 20 -327 -1 -350 -2 -385 -21z"/>
<path d="M1053 2420 c-176 -25 -367 -98 -519 -200 -101 -68 -256 -223 -324
-324 -76 -114 -137 -249 -172 -384 -29 -110 -31 -128 -31 -297 0 -169 2 -187
31 -297 57 -219 160 -397 321 -559 413 -415 1048 -476 1537 -149 43 29 122 96
175 149 415 413 476 1048 149 1537 -68 101 -223 256 -324 324 -197 132 -406
198 -641 205 -77 2 -168 0 -202 -5z m389 -319 c322 -84 571 -334 660 -662 32
-120 32 -328 0 -448 -90 -334 -346 -585 -679 -668 -106 -27 -324 -24 -431 5
-334 90 -586 346 -669 679 -23 94 -23 322 0 416 89 358 369 622 732 693 96 19
287 11 387 -15z"/>
<path d="M840 1642 c-77 -38 -105 -142 -57 -212 83 -122 271 -67 271 80 0 111
-115 182 -214 132z"/>
<path d="M1460 1642 c-107 -53 -107 -211 0 -264 98 -50 210 21 210 132 0 81
-67 150 -145 150 -16 0 -46 -8 -65 -18z"/>
<path d="M1083 1076 c-131 -32 -278 -139 -327 -238 -31 -62 -32 -79 -6 -135
25 -57 69 -83 139 -83 53 0 56 2 108 55 78 80 121 106 190 112 91 8 137 -9
212 -82 77 -73 97 -85 146 -85 78 0 136 54 143 133 5 69 -12 103 -94 184 -69
68 -171 123 -262 142 -69 14 -183 13 -249 -3z"/>
<path d="M3743 2420 c-176 -25 -367 -98 -519 -200 -101 -68 -256 -223 -324
-324 -76 -114 -137 -249 -172 -384 -29 -110 -31 -128 -31 -297 0 -169 2 -187
31 -297 57 -219 160 -397 321 -559 413 -415 1048 -476 1537 -149 43 29 122 96
175 149 415 413 476 1048 149 1537 -68 101 -223 256 -324 324 -197 132 -406
198 -641 205 -77 2 -168 0 -202 -5z m389 -319 c322 -84 571 -334 660 -662 32
-120 32 -328 0 -448 -90 -334 -346 -585 -679 -668 -106 -27 -324 -24 -431 5
-334 90 -586 346 -669 679 -23 94 -23 322 0 416 89 358 369 622 732 693 96 19
287 11 387 -15z"/>
<path d="M3408 1710 c-41 -22 -78 -82 -78 -126 0 -62 35 -106 142 -178 117
-80 166 -92 228 -58 41 22 80 84 80 126 0 65 -34 109 -143 181 -118 79 -165
90 -229 55z"/>
<path d="M4270 1717 c-88 -46 -199 -131 -220 -168 -58 -104 26 -230 145 -217
63 8 239 129 265 184 25 50 25 77 1 131 -32 69 -127 103 -191 70z"/>
<path d="M3500 1071 c-48 -26 -83 -93 -75 -146 8 -53 35 -93 106 -160 107 -99
226 -145 374 -145 158 0 292 57 396 167 67 72 79 96 79 154 0 102 -92 170
-191 140 -26 -8 -52 -28 -80 -61 -112 -132 -297 -134 -404 -4 -20 24 -50 51
-65 59 -39 20 -98 19 -140 -4z"/>
</g>
</svg>
