<?xml version="1.0" encoding="UTF-8"?>
<!DOCTYPE svg PUBLIC "-//W3C//DTD SVG 1.1//EN" "http://www.w3.org/Graphics/SVG/1.1/DTD/svg11.dtd">
<svg xmlns="http://www.w3.org/2000/svg" version="1.1" width="512px" height="512px" style="shape-rendering:geometricPrecision; text-rendering:geometricPrecision; image-rendering:optimizeQuality; fill-rule:evenodd; clip-rule:evenodd" xmlns:xlink="http://www.w3.org/1999/xlink">
<g><path style="opacity:0.979" fill="#000000" d="M 53.5,-0.5 C 57.8333,-0.5 62.1667,-0.5 66.5,-0.5C 72.533,3.3472 78.1997,7.8472 83.5,13C 94.4391,19.4553 106.272,22.622 119,22.5C 130.293,21.9344 141.459,20.4344 152.5,18C 169.833,13.3333 187.167,8.66667 204.5,4C 213.269,2.25158 221.935,0.751582 230.5,-0.5C 242.167,-0.5 253.833,-0.5 265.5,-0.5C 278.855,0.674429 292.188,2.8411 305.5,6C 315.779,12.0682 319.279,20.9015 316,32.5C 305.111,51.7769 294.611,71.2769 284.5,91C 294.531,111.562 304.698,132.062 315,152.5C 320.63,169.909 314.464,180.243 296.5,183.5C 268.579,177.583 240.579,177.083 212.5,182C 188.188,189.245 163.521,194.912 138.5,199C 119.157,201.62 100.157,200.12 81.5,194.5C 80.3334,257.831 80.1667,321.164 81,384.5C 98.5,391.333 110.667,403.5 117.5,421C 225.5,421.667 333.5,421.667 441.5,421C 435.667,415.167 429.833,409.333 424,403.5C 417.122,389.467 420.622,378.967 434.5,372C 441.249,370.669 447.582,371.669 453.5,375C 471.333,392.833 489.167,410.667 507,428.5C 509.079,431.324 510.579,434.324 511.5,437.5C 511.5,440.167 511.5,442.833 511.5,445.5C 510.645,448.175 509.478,450.842 508,453.5C 489.833,471.667 471.667,489.833 453.5,508C 451.273,508.941 449.273,510.108 447.5,511.5C 443.167,511.5 438.833,511.5 434.5,511.5C 420.732,504.362 417.232,493.696 424,479.5C 429.833,473.667 435.667,467.833 441.5,462C 333.5,461.333 225.5,461.333 117.5,462C 104.208,491.821 81.2081,504.821 48.5,501C 20.9001,493.937 4.56681,476.437 -0.5,448.5C -0.5,443.833 -0.5,439.167 -0.5,434.5C 3.52684,410.637 16.6935,393.97 39,384.5C 39.3333,261.5 39.6667,138.5 40,15.5C 41.8588,7.81744 46.3588,2.48411 53.5,-0.5 Z M 231.5,40.5 C 242.505,40.3335 253.505,40.5002 264.5,41C 257.207,53.7526 250.04,66.5859 243,79.5C 240.135,85.6907 239.801,92.024 242,98.5C 248.372,111.411 254.872,124.245 261.5,137C 245.426,136.972 229.426,137.972 213.5,140C 194.684,144.037 176.017,148.704 157.5,154C 140.043,158.58 122.376,159.913 104.5,158C 95.9225,156.587 88.0892,153.421 81,148.5C 80.5,118.168 80.3334,87.8352 80.5,57.5C 105.988,64.9729 131.655,65.4729 157.5,59C 182.153,52.1702 206.819,46.0035 231.5,40.5 Z M 54.5,422.5 C 67.0246,420.508 75.1912,425.508 79,437.5C 79.7669,451.071 73.4335,459.071 60,461.5C 42.7189,457.27 37.3856,446.937 44,430.5C 46.9753,426.952 50.4753,424.286 54.5,422.5 Z"/></g>
</svg>
