<?xml version="1.0" encoding="UTF-8"?>
<!DOCTYPE svg PUBLIC "-//W3C//DTD SVG 1.1//EN" "http://www.w3.org/Graphics/SVG/1.1/DTD/svg11.dtd">
<svg xmlns="http://www.w3.org/2000/svg" version="1.1" width="512px" height="512px" style="shape-rendering:geometricPrecision; text-rendering:geometricPrecision; image-rendering:optimizeQuality; fill-rule:evenodd; clip-rule:evenodd" xmlns:xlink="http://www.w3.org/1999/xlink">
<g><path style="opacity:0.99" fill="#000000" d="M 200.5,15.5 C 237.168,15.3333 273.835,15.5 310.5,16C 318.667,18.8333 324.167,24.3333 327,32.5C 327.5,64.1649 327.667,95.8316 327.5,127.5C 332.833,127.5 338.167,127.5 343.5,127.5C 343.666,137.839 343.5,148.172 343,158.5C 340.167,166.667 334.667,172.167 326.5,175C 279.167,175.667 231.833,175.667 184.5,175C 176.333,172.167 170.833,166.667 168,158.5C 167.5,148.172 167.334,137.839 167.5,127.5C 172.833,127.5 178.167,127.5 183.5,127.5C 183.333,95.8316 183.5,64.1649 184,32.5C 187.019,24.3156 192.519,18.649 200.5,15.5 Z M 207.5,31.5 C 239.502,31.3334 271.502,31.5 303.5,32C 308,32.5 310.5,35 311,39.5C 311.5,68.8314 311.667,98.1648 311.5,127.5C 274.167,127.5 236.833,127.5 199.5,127.5C 199.333,98.1648 199.5,68.8314 200,39.5C 200.68,34.9895 203.18,32.3228 207.5,31.5 Z M 239.5,64.5 C 247.754,69.4152 255.754,74.7486 263.5,80.5C 255.804,86.0288 247.97,91.3622 240,96.5C 239.5,85.8385 239.333,75.1719 239.5,64.5 Z M 183.5,143.5 C 231.5,143.5 279.5,143.5 327.5,143.5C 327.887,148.08 327.053,152.414 325,156.5C 323.352,157.717 321.519,158.55 319.5,159C 276.833,159.667 234.167,159.667 191.5,159C 187,158.5 184.5,156 184,151.5C 183.503,148.854 183.336,146.187 183.5,143.5 Z"/></g>
<g><path style="opacity:0.947" fill="#000000" d="M 233.5,47.5 C 237.514,47.3345 241.514,47.5012 245.5,48C 256.003,54.4174 266.337,61.0841 276.5,68C 283.167,76.3333 283.167,84.6667 276.5,93C 267.328,98.7519 258.328,104.752 249.5,111C 238.585,116.647 230.085,114.147 224,103.5C 223.333,88.1667 223.333,72.8333 224,57.5C 226.022,52.98 229.189,49.6467 233.5,47.5 Z M 239.5,64.5 C 239.333,75.1719 239.5,85.8385 240,96.5C 247.97,91.3622 255.804,86.0288 263.5,80.5C 255.754,74.7486 247.754,69.4152 239.5,64.5 Z"/></g>
<g><path style="opacity:0.919" fill="#000000" d="M 162.5,50.5 C 163.496,50.4142 164.329,50.7476 165,51.5C 167.44,56.0466 169.607,60.7133 171.5,65.5C 125,86.8327 90.5003,120.499 68,166.5C 64.8018,172.931 62.3018,179.598 60.5,186.5C 54.533,185.289 48.8663,183.289 43.5,180.5C 65.8123,121.191 105.479,77.8581 162.5,50.5 Z"/></g>
<g><path style="opacity:0.914" fill="#000000" d="M 346.5,50.5 C 372.626,61.7934 395.626,77.6267 415.5,98C 411.833,101.667 408.167,105.333 404.5,109C 403.833,109.667 403.167,109.667 402.5,109C 384.109,90.7851 363.109,76.2851 339.5,65.5C 341.646,60.3853 343.98,55.3853 346.5,50.5 Z"/></g>
<g><path style="opacity:0.907" fill="#000000" d="M 439.5,83.5 C 445.142,85.3259 450.475,87.8259 455.5,91C 449.205,104.425 443.038,117.925 437,131.5C 431.757,129.128 426.59,126.628 421.5,124C 427.915,110.67 433.915,97.1705 439.5,83.5 Z"/></g>
<g><path style="opacity:0.904" fill="#000000" d="M 479.5,83.5 C 485.142,85.3259 490.475,87.8259 495.5,91C 489.205,104.425 483.038,117.925 477,131.5C 471.757,129.128 466.59,126.628 461.5,124C 467.915,110.67 473.915,97.1705 479.5,83.5 Z"/></g>
<g><path style="opacity:0.87" fill="#000000" d="M 414.5,139.5 C 419.984,141.441 425.318,143.774 430.5,146.5C 428,152.167 425.5,157.833 423,163.5C 417.757,161.128 412.59,158.628 407.5,156C 410.25,150.667 412.584,145.167 414.5,139.5 Z"/></g>
<g><path style="opacity:0.862" fill="#000000" d="M 454.5,139.5 C 460.055,141.276 465.388,143.609 470.5,146.5C 468,152.167 465.5,157.833 463,163.5C 457.564,161.2 452.397,158.533 447.5,155.5C 450.228,150.308 452.561,144.975 454.5,139.5 Z"/></g>
<g><path style="opacity:0.95" fill="#000000" d="M 351.5,167.5 C 371.589,165.476 389.256,170.976 404.5,184C 411.792,190.45 418.125,197.617 423.5,205.5C 435.06,188.052 450.727,175.886 470.5,169C 478.773,167.67 487.107,167.17 495.5,167.5C 497.621,193.421 488.621,214.588 468.5,231C 457.905,240.295 445.572,245.795 431.5,247.5C 431.5,252.833 431.5,258.167 431.5,263.5C 447.5,263.5 463.5,263.5 479.5,263.5C 479.5,268.833 479.5,274.167 479.5,279.5C 476.552,279.223 473.719,279.556 471,280.5C 469.164,295.856 467.164,311.189 465,326.5C 462.167,334.667 456.667,340.167 448.5,343C 431.833,343.667 415.167,343.667 398.5,343C 390.333,340.167 384.833,334.667 382,326.5C 379.836,311.189 377.836,295.856 376,280.5C 373.281,279.556 370.448,279.223 367.5,279.5C 367.5,274.167 367.5,268.833 367.5,263.5C 383.5,263.5 399.5,263.5 415.5,263.5C 415.5,258.167 415.5,252.833 415.5,247.5C 396.166,244.667 380.332,235.667 368,220.5C 354.976,205.256 349.476,187.589 351.5,167.5 Z M 369.5,185.5 C 376.727,186.945 383.394,189.778 389.5,194C 399.286,201.776 406.786,211.276 412,222.5C 412.977,224.74 413.477,227.073 413.5,229.5C 406.273,228.055 399.606,225.222 393.5,221C 383.714,213.224 376.214,203.724 371,192.5C 370.023,190.26 369.523,187.927 369.5,185.5 Z M 433.5,229.5 C 434.945,222.273 437.778,215.606 442,209.5C 449.776,199.714 459.276,192.214 470.5,187C 472.74,186.023 475.073,185.523 477.5,185.5C 476.055,192.727 473.222,199.394 469,205.5C 461.224,215.286 451.724,222.786 440.5,228C 438.26,228.977 435.927,229.477 433.5,229.5 Z M 393.5,279.5 C 413.5,279.5 433.5,279.5 453.5,279.5C 452.394,294.687 450.227,309.687 447,324.5C 445.352,325.717 443.519,326.55 441.5,327C 429.5,327.667 417.5,327.667 405.5,327C 400.579,326.335 398.079,323.502 398,318.5C 396.252,305.52 394.752,292.52 393.5,279.5 Z"/></g>
<g><path style="opacity:0.929" fill="#000000" d="M 260.5,191.5 C 294.038,188.512 317.872,202.179 332,232.5C 341.669,264.493 333.169,290.326 306.5,310C 288.064,320.264 268.73,322.264 248.5,316C 226.421,307.014 212.921,290.847 208,267.5C 204.53,227.382 222.03,202.049 260.5,191.5 Z M 270.5,207.5 C 295.518,209.354 311.352,222.354 318,246.5C 320.577,275.246 308.077,293.746 280.5,302C 259.486,305.073 242.986,297.906 231,280.5C 218.485,254.396 223.652,232.562 246.5,215C 254.155,210.946 262.155,208.446 270.5,207.5 Z"/></g>
<g><path style="opacity:0.977" fill="#000000" d="M 32.5,199.5 C 42.5056,199.334 52.5056,199.5 62.5,200C 76.6284,205.748 82.295,216.248 79.5,231.5C 92.8333,231.5 106.167,231.5 119.5,231.5C 116.705,216.248 122.372,205.748 136.5,200C 147.573,199.069 158.573,199.403 169.5,201C 176.149,204.314 180.649,209.481 183,216.5C 183.667,242.5 183.667,268.5 183,294.5C 180.649,301.519 176.149,306.686 169.5,310C 158.573,311.597 147.573,311.931 136.5,311C 122.372,305.252 116.705,294.752 119.5,279.5C 106.167,279.5 92.8333,279.5 79.5,279.5C 82.2208,293.208 77.5542,303.375 65.5,310C 54.5728,311.597 43.5728,311.931 32.5,311C 24.3333,308.167 18.8333,302.667 16,294.5C 15.3333,268.5 15.3333,242.5 16,216.5C 19.0191,208.316 24.5191,202.649 32.5,199.5 Z M 39.5,215.5 C 45.9251,215.13 52.2584,215.63 58.5,217C 61.0943,218.339 62.5943,220.506 63,223.5C 63.6667,244.833 63.6667,266.167 63,287.5C 62.5,292 60,294.5 55.5,295C 48.2851,296.113 41.2851,295.446 34.5,293C 33.283,291.352 32.4497,289.519 32,287.5C 31.3333,266.167 31.3333,244.833 32,223.5C 32.6804,218.989 35.1804,216.323 39.5,215.5 Z M 143.5,215.5 C 149.925,215.13 156.258,215.63 162.5,217C 165.094,218.339 166.594,220.506 167,223.5C 167.667,244.833 167.667,266.167 167,287.5C 166.5,292 164,294.5 159.5,295C 152.285,296.113 145.285,295.446 138.5,293C 137.283,291.352 136.45,289.519 136,287.5C 135.333,266.167 135.333,244.833 136,223.5C 136.68,218.989 139.18,216.323 143.5,215.5 Z M 79.5,247.5 C 92.8333,247.5 106.167,247.5 119.5,247.5C 119.5,252.833 119.5,258.167 119.5,263.5C 106.167,263.5 92.8333,263.5 79.5,263.5C 79.5,258.167 79.5,252.833 79.5,247.5 Z"/></g>
<g><path style="opacity:0.943" fill="#000000" d="M 263.5,223.5 C 268.833,223.5 274.167,223.5 279.5,223.5C 279.667,235.838 279.5,248.171 279,260.5C 270.652,269.014 262.152,277.348 253.5,285.5C 249.167,281.833 245.167,277.833 241.5,273.5C 248.485,266.014 255.652,258.681 263,251.5C 263.5,242.173 263.666,232.839 263.5,223.5 Z"/></g>
<g><path style="opacity:0.919" fill="#000000" d="M 331.5,317.5 C 337.462,317.241 343.129,318.407 348.5,321C 359.128,329.291 367.961,339.124 375,350.5C 375.333,357.5 375.667,364.5 376,371.5C 398.333,393.833 420.667,416.167 443,438.5C 448.621,446.812 449.954,455.812 447,465.5C 440.608,477.944 430.441,482.777 416.5,480C 414.051,479.275 411.717,478.275 409.5,477C 385.861,454.362 362.528,431.362 339.5,408C 332.5,407.667 325.5,407.333 318.5,407C 316.5,406 314.5,405 312.5,404C 303.296,396.463 295.129,387.963 288,378.5C 284.518,370.348 284.852,362.348 289,354.5C 298.803,343.696 308.97,333.196 319.5,323C 323.284,320.471 327.284,318.638 331.5,317.5 Z M 333.5,334.5 C 335.655,334.372 337.655,334.872 339.5,336C 345.667,342.167 351.833,348.333 358,354.5C 359.21,363.106 359.877,371.773 360,380.5C 383.667,404.167 407.333,427.833 431,451.5C 432.5,460.667 428.667,464.5 419.5,463C 395.833,439.333 372.167,415.667 348.5,392C 339.773,391.877 331.106,391.21 322.5,390C 316.333,383.833 310.167,377.667 304,371.5C 302,368.833 302,366.167 304,363.5C 313.728,353.604 323.562,343.937 333.5,334.5 Z"/></g>
<g><path style="opacity:0.915" fill="#000000" d="M 57.5,324.5 C 58.5,324.5 59.5,324.5 60.5,324.5C 70.9931,354.492 87.3264,380.826 109.5,403.5C 105.849,407.652 102.016,411.652 98,415.5C 73.3108,391.481 55.1442,363.147 43.5,330.5C 48.1513,328.289 52.818,326.289 57.5,324.5 Z"/></g>
<g><path style="opacity:1" fill="#000000" d="M 215.5,343.5 C 220.833,343.5 226.167,343.5 231.5,343.5C 231.5,348.833 231.5,354.167 231.5,359.5C 226.167,359.5 220.833,359.5 215.5,359.5C 215.5,354.167 215.5,348.833 215.5,343.5 Z"/></g>
<g><path style="opacity:1" fill="#000000" d="M 159.5,351.5 C 164.833,351.5 170.167,351.5 175.5,351.5C 175.5,356.833 175.5,362.167 175.5,367.5C 170.167,367.5 164.833,367.5 159.5,367.5C 159.5,362.167 159.5,356.833 159.5,351.5 Z"/></g>
<g><path style="opacity:0.897" fill="#000000" d="M 436.5,355.5 C 442.358,357.096 447.691,359.762 452.5,363.5C 448.251,371 443.751,378.334 439,385.5C 435.966,389.529 432.633,393.196 429,396.5C 424.387,393.72 420.22,390.387 416.5,386.5C 424.434,376.96 431.101,366.627 436.5,355.5 Z"/></g>
<g><path style="opacity:1" fill="#000000" d="M 247.5,359.5 C 252.833,359.5 258.167,359.5 263.5,359.5C 263.5,364.833 263.5,370.167 263.5,375.5C 258.167,375.5 252.833,375.5 247.5,375.5C 247.5,370.167 247.5,364.833 247.5,359.5 Z"/></g>
<g><path style="opacity:1" fill="#000000" d="M 191.5,367.5 C 196.833,367.5 202.167,367.5 207.5,367.5C 207.5,372.833 207.5,378.167 207.5,383.5C 202.167,383.5 196.833,383.5 191.5,383.5C 191.5,378.167 191.5,372.833 191.5,367.5 Z"/></g>
<g><path style="opacity:1" fill="#000000" d="M 215.5,391.5 C 220.833,391.5 226.167,391.5 231.5,391.5C 231.5,396.833 231.5,402.167 231.5,407.5C 226.167,407.5 220.833,407.5 215.5,407.5C 215.5,402.167 215.5,396.833 215.5,391.5 Z"/></g>
<g><path style="opacity:1" fill="#000000" d="M 167.5,399.5 C 172.833,399.5 178.167,399.5 183.5,399.5C 183.5,404.833 183.5,410.167 183.5,415.5C 178.167,415.5 172.833,415.5 167.5,415.5C 167.5,410.167 167.5,404.833 167.5,399.5 Z"/></g>
<g><path style="opacity:1" fill="#000000" d="M 263.5,399.5 C 268.833,399.5 274.167,399.5 279.5,399.5C 279.5,404.833 279.5,410.167 279.5,415.5C 274.167,415.5 268.833,415.5 263.5,415.5C 263.5,410.167 263.5,404.833 263.5,399.5 Z"/></g>
<g><path style="opacity:0.982" fill="#000000" d="M 88.5,431.5 C 176.167,431.5 263.833,431.5 351.5,431.5C 351.918,443.895 351.418,456.228 350,468.5C 344.894,482.606 335.061,491.44 320.5,495C 277.167,495.667 233.833,495.667 190.5,495C 181.22,492.695 173.553,487.862 167.5,480.5C 140.111,479.975 112.778,479.141 85.5,478C 70.9547,469.157 67.4547,456.991 75,441.5C 78.5795,436.731 83.0795,433.397 88.5,431.5 Z M 95.5,447.5 C 116.833,447.5 138.167,447.5 159.5,447.5C 159.5,452.833 159.5,458.167 159.5,463.5C 138.164,463.667 116.831,463.5 95.5,463C 88.6531,461.134 86.8197,456.968 90,450.5C 91.8761,449.391 93.7095,448.391 95.5,447.5 Z M 175.5,447.5 C 228.833,447.5 282.167,447.5 335.5,447.5C 337.022,465.457 329.022,475.957 311.5,479C 274.167,479.667 236.833,479.667 199.5,479C 181.978,475.957 173.978,465.457 175.5,447.5 Z"/></g>
</svg>
