<?xml version="1.0" standalone="no"?>
<!DOCTYPE svg PUBLIC "-//W3C//DTD SVG 20010904//EN"
 "http://www.w3.org/TR/2001/REC-SVG-20010904/DTD/svg10.dtd">
<svg version="1.0" xmlns="http://www.w3.org/2000/svg"
 width="512.000000pt" height="512.000000pt" viewBox="0 0 512.000000 512.000000"
 preserveAspectRatio="xMidYMid meet">

<g transform="translate(0.000000,512.000000) scale(0.100000,-0.100000)"
fill="#000000" stroke="none">
<path d="M2130 5109 c-48 -20 -98 -83 -106 -135 -8 -54 8 -128 33 -156 38 -43
94 -58 211 -58 l112 0 0 -188 0 -189 -115 -13 c-63 -7 -115 -16 -115 -20 0 -4
-19 -10 -42 -14 -65 -10 -242 -56 -248 -64 -3 -4 -34 -17 -70 -29 -97 -32
-134 -47 -140 -55 -3 -4 -39 -21 -80 -38 -41 -18 -79 -37 -85 -44 -5 -7 -23
-19 -40 -28 -64 -32 -98 -54 -127 -80 -17 -16 -36 -28 -43 -28 -8 0 -20 -8
-27 -18 -17 -22 -84 -72 -97 -72 -13 0 -151 135 -151 148 0 6 15 23 34 37 82
62 88 201 12 272 -41 39 -74 53 -127 53 -62 0 -97 -22 -196 -122 -51 -51 -146
-147 -213 -212 -133 -131 -149 -160 -136 -248 10 -67 76 -134 143 -144 69 -10
126 8 172 56 21 22 42 40 47 40 12 0 154 -140 154 -152 0 -5 -13 -21 -30 -35
-16 -13 -30 -30 -30 -37 0 -7 -11 -22 -24 -33 -13 -12 -31 -36 -40 -55 -9 -18
-27 -46 -41 -62 -14 -16 -36 -53 -50 -82 -14 -29 -29 -54 -33 -56 -11 -4 -62
-115 -62 -133 0 -8 -7 -21 -16 -29 -16 -16 -74 -175 -74 -202 0 -8 -4 -14 -9
-14 -10 0 -44 -137 -62 -250 -7 -41 -16 -77 -20 -80 -4 -3 -13 -83 -20 -177
-10 -136 -10 -206 0 -335 7 -90 16 -165 21 -168 4 -3 11 -30 15 -60 9 -73 54
-263 63 -270 4 -3 23 -52 41 -110 19 -58 38 -107 42 -110 5 -3 22 -39 39 -79
18 -41 37 -80 44 -87 7 -6 26 -38 42 -70 16 -32 38 -68 50 -80 11 -13 29 -39
39 -58 11 -20 23 -36 27 -36 4 0 19 -19 34 -41 28 -45 41 -60 177 -202 51 -53
98 -97 105 -97 6 0 19 -11 28 -26 9 -14 29 -31 43 -39 15 -7 39 -25 54 -41 15
-15 37 -32 50 -39 43 -22 71 -40 88 -56 9 -9 41 -29 70 -44 30 -15 56 -30 59
-34 3 -4 40 -22 83 -40 42 -19 77 -37 77 -41 0 -3 46 -21 103 -40 56 -19 104
-37 107 -41 6 -9 151 -44 250 -61 41 -7 77 -15 80 -19 9 -12 218 -29 359 -29
144 0 361 18 361 30 0 4 21 10 48 14 73 10 265 55 271 64 3 4 52 23 108 41 56
18 103 36 105 40 2 3 34 19 71 35 38 16 74 34 80 41 7 6 46 29 87 50 41 22 80
45 85 51 6 7 30 24 55 40 25 15 51 35 58 46 7 10 19 18 25 18 7 0 26 13 42 29
199 192 265 259 265 267 0 6 14 20 30 32 17 13 30 28 30 36 0 7 14 26 30 42
17 16 37 43 46 60 8 17 24 41 34 52 11 12 34 49 52 84 17 35 37 68 43 73 13
11 65 126 65 143 0 6 4 12 10 14 10 3 70 169 70 194 0 8 4 14 9 14 10 0 55
182 67 268 3 28 10 52 14 52 12 0 30 217 30 360 0 143 -18 362 -30 370 -4 3
-13 37 -19 75 -17 97 -50 228 -59 235 -5 3 -16 30 -25 60 -26 90 -47 141 -62
157 -8 8 -15 19 -15 25 0 14 -50 122 -60 128 -4 3 -15 21 -23 40 -21 47 -47
89 -75 119 -12 14 -22 31 -22 38 0 6 -12 24 -28 40 -15 15 -36 42 -46 58 -22
34 -35 49 -173 193 -53 56 -102 102 -108 102 -5 0 -23 16 -38 35 -15 19 -33
35 -40 35 -7 0 -27 16 -46 35 -19 19 -39 35 -46 35 -7 0 -23 10 -37 23 -30 27
-72 53 -115 73 -18 8 -33 18 -33 23 0 4 -40 25 -90 46 -49 21 -90 41 -90 45 0
8 -56 29 -150 57 -30 9 -57 20 -60 24 -6 9 -180 54 -247 65 -24 4 -43 10 -43
14 0 4 -52 13 -115 20 l-115 13 0 189 0 188 112 0 c117 0 173 15 211 58 25 28
41 102 33 156 -8 54 -58 116 -109 135 -37 14 -832 14 -867 0z m570 -1089 c0
-5 21 -10 48 -10 88 0 362 -54 362 -71 0 -5 6 -9 14 -9 20 0 200 -61 206 -69
3 -4 38 -23 78 -41 39 -18 72 -36 72 -40 0 -4 25 -19 56 -35 31 -16 58 -34 61
-42 3 -7 9 -13 14 -13 32 0 232 -177 329 -289 19 -23 47 -54 63 -70 15 -16 27
-32 27 -36 0 -3 11 -21 25 -39 14 -18 25 -38 25 -43 0 -6 6 -13 13 -16 7 -3
26 -32 42 -66 16 -34 33 -61 37 -61 8 0 41 -72 51 -112 4 -15 14 -33 22 -41 8
-8 29 -64 46 -123 18 -60 35 -111 40 -114 4 -3 17 -63 30 -135 33 -186 33
-501 0 -690 -13 -71 -26 -132 -31 -135 -4 -3 -22 -54 -39 -114 -18 -60 -39
-115 -47 -123 -8 -8 -14 -19 -14 -25 0 -16 -53 -133 -63 -136 -4 -2 -21 -30
-37 -63 -17 -32 -35 -59 -40 -59 -6 0 -10 -5 -10 -12 0 -6 -11 -26 -25 -44
-14 -18 -25 -36 -25 -39 0 -4 -12 -19 -27 -35 -16 -15 -48 -51 -73 -80 -61
-72 -76 -87 -145 -145 -32 -27 -66 -57 -75 -65 -31 -29 -89 -70 -99 -70 -5 0
-14 -7 -18 -14 -5 -8 -35 -29 -67 -47 -33 -17 -65 -37 -72 -44 -7 -7 -43 -25
-81 -41 -37 -15 -70 -32 -73 -36 -6 -7 -137 -51 -187 -63 -18 -3 -33 -10 -33
-14 0 -8 -53 -21 -200 -48 -72 -13 -150 -17 -320 -17 -203 1 -239 3 -365 28
-77 15 -142 31 -145 35 -3 5 -16 11 -30 15 -102 29 -190 60 -190 66 0 5 -17
14 -37 20 -39 13 -114 50 -123 61 -3 4 -33 21 -67 39 -35 18 -63 36 -63 41 0
4 -19 18 -42 32 -24 14 -55 36 -69 48 -14 13 -52 47 -85 74 -68 58 -83 73
-144 145 -25 29 -57 65 -73 80 -15 16 -27 31 -27 35 0 3 -11 21 -25 39 -14 18
-25 38 -25 44 0 7 -4 12 -10 12 -5 0 -23 27 -40 59 -16 33 -33 61 -37 63 -10
3 -63 120 -63 136 0 6 -6 17 -14 25 -8 8 -29 63 -47 123 -17 60 -35 111 -39
114 -5 3 -18 64 -31 135 -33 189 -33 504 0 690 13 72 26 132 31 135 4 3 22 56
40 118 18 61 36 112 39 112 4 0 22 38 40 85 19 47 37 85 42 85 5 0 21 25 36
56 15 31 33 59 40 61 7 3 13 10 13 16 0 5 11 25 25 43 14 18 25 36 25 39 0 4
12 20 28 36 15 16 43 47 62 70 54 63 133 141 174 172 20 16 44 36 54 46 26 26
90 71 100 71 6 0 12 6 15 13 3 8 30 26 61 42 31 16 56 31 56 35 0 4 33 22 73
40 39 18 74 37 77 41 6 8 186 69 206 69 8 0 14 4 14 9 0 17 273 71 358 71 23
0 42 5 42 10 0 6 53 10 140 10 87 0 140 -4 140 -10z"/>
<path d="M2520 3291 c0 -5 -12 -12 -27 -16 -31 -7 -83 -52 -83 -71 0 -7 -6
-14 -12 -17 -10 -3 -13 -107 -13 -478 l0 -474 35 -39 c47 -53 55 -61 135 -131
38 -33 94 -83 123 -112 30 -29 58 -54 62 -55 7 -3 97 -81 171 -148 15 -14 51
-45 80 -70 28 -25 71 -64 94 -87 23 -24 47 -43 53 -43 6 0 21 -12 34 -27 12
-16 36 -34 51 -40 33 -15 115 -17 150 -4 31 12 86 68 99 100 13 36 12 107 -2
142 -11 27 -106 129 -119 129 -3 0 -31 23 -61 51 -30 28 -77 70 -103 92 -27
23 -67 61 -89 85 -23 23 -46 42 -51 42 -6 0 -27 17 -47 38 -21 20 -60 56 -86
79 -27 23 -75 65 -106 94 l-57 52 -3 400 c-2 309 -6 401 -15 405 -7 2 -13 9
-13 16 0 19 -52 64 -82 71 -16 4 -28 11 -28 16 0 5 -20 9 -45 9 -25 0 -45 -4
-45 -9z"/>
</g>
</svg>
