<?xml version="1.0" encoding="UTF-8"?>
<!DOCTYPE svg PUBLIC "-//W3C//DTD SVG 1.1//EN" "http://www.w3.org/Graphics/SVG/1.1/DTD/svg11.dtd">
<svg xmlns="http://www.w3.org/2000/svg" version="1.1" width="512px" height="512px" style="shape-rendering:geometricPrecision; text-rendering:geometricPrecision; image-rendering:optimizeQuality; fill-rule:evenodd; clip-rule:evenodd" xmlns:xlink="http://www.w3.org/1999/xlink">
<g><path style="opacity:0.991" fill="#000000" d="M 118.5,-0.5 C 122.5,-0.5 126.5,-0.5 130.5,-0.5C 136.125,1.41268 140.292,5.07934 143,10.5C 144.42,20.0862 144.92,29.7529 144.5,39.5C 174.5,39.5 204.5,39.5 234.5,39.5C 234.08,29.7529 234.58,20.0862 236,10.5C 238.708,5.07934 242.875,1.41268 248.5,-0.5C 252.5,-0.5 256.5,-0.5 260.5,-0.5C 266.125,1.41268 270.292,5.07934 273,10.5C 274.42,20.0862 274.92,29.7529 274.5,39.5C 304.833,39.5 335.167,39.5 365.5,39.5C 365.08,29.7529 365.58,20.0862 367,10.5C 369.708,5.07934 373.875,1.41268 379.5,-0.5C 383.5,-0.5 387.5,-0.5 391.5,-0.5C 397.125,1.41268 401.292,5.07934 404,10.5C 405.42,20.0862 405.92,29.7529 405.5,39.5C 420.211,39.1063 434.878,39.6063 449.5,41C 483.535,50.8635 504.202,73.0302 511.5,107.5C 511.5,184.167 511.5,260.833 511.5,337.5C 506.751,349.045 498.084,353.545 485.5,351C 478.333,349.167 473.833,344.667 472,337.5C 471.667,264.833 471.333,192.167 471,119.5C 468.5,95.6667 455.333,82.5 431.5,80C 422.84,79.5002 414.173,79.3336 405.5,79.5C 405.92,89.2471 405.42,98.9138 404,108.5C 396.78,119.726 386.947,122.56 374.5,117C 370.338,114.188 367.505,110.355 366,105.5C 365.5,96.8397 365.334,88.1731 365.5,79.5C 335.167,79.5 304.833,79.5 274.5,79.5C 274.92,89.2471 274.42,98.9138 273,108.5C 265.78,119.726 255.947,122.56 243.5,117C 239.338,114.188 236.505,110.355 235,105.5C 234.5,96.8397 234.334,88.1731 234.5,79.5C 204.5,79.5 174.5,79.5 144.5,79.5C 144.92,89.2471 144.42,98.9138 143,108.5C 135.78,119.726 125.947,122.56 113.5,117C 109.338,114.188 106.505,110.355 105,105.5C 104.5,96.8397 104.334,88.1731 104.5,79.5C 92.0593,78.9905 79.726,79.8238 67.5,82C 53.3937,87.1058 44.5604,96.9392 41,111.5C 39.3505,218.144 39.0172,324.811 40,431.5C 42.5,455.333 55.6667,468.5 79.5,471C 196.833,471.667 314.167,471.667 431.5,471C 449.676,469.502 462.176,460.335 469,443.5C 470.089,436.449 471.423,429.449 473,422.5C 479.453,412.014 488.62,408.847 500.5,413C 505.921,415.708 509.587,419.875 511.5,425.5C 511.5,431.5 511.5,437.5 511.5,443.5C 506.099,472.757 489.765,493.59 462.5,506C 456.172,508.327 449.838,510.16 443.5,511.5C 318.167,511.5 192.833,511.5 67.5,511.5C 38.2429,506.099 17.4096,489.765 5,462.5C 2.6729,456.172 0.839566,449.838 -0.5,443.5C -0.5,331.5 -0.5,219.5 -0.5,107.5C 6.79813,73.0302 27.4648,50.8635 61.5,41C 75.7887,39.6092 90.122,39.1092 104.5,39.5C 104.08,29.7529 104.58,20.0862 106,10.5C 108.708,5.07934 112.875,1.41268 118.5,-0.5 Z"/></g>
<g><path style="opacity:0.95" fill="#000000" d="M 118.5,189.5 C 139.319,188.469 147.486,198.136 143,218.5C 136.547,228.986 127.38,232.153 115.5,228C 105.014,221.547 101.847,212.38 106,200.5C 108.708,195.079 112.875,191.413 118.5,189.5 Z"/></g>
<g><path style="opacity:0.95" fill="#000000" d="M 205.5,189.5 C 226.319,188.469 234.486,198.136 230,218.5C 223.547,228.986 214.38,232.153 202.5,228C 192.014,221.547 188.847,212.38 193,200.5C 195.708,195.079 199.875,191.413 205.5,189.5 Z"/></g>
<g><path style="opacity:0.95" fill="#000000" d="M 292.5,189.5 C 313.319,188.469 321.486,198.136 317,218.5C 310.547,228.986 301.38,232.153 289.5,228C 279.014,221.547 275.847,212.38 280,200.5C 282.708,195.079 286.875,191.413 292.5,189.5 Z"/></g>
<g><path style="opacity:0.95" fill="#000000" d="M 379.5,189.5 C 400.319,188.469 408.486,198.136 404,218.5C 397.547,228.986 388.38,232.153 376.5,228C 366.014,221.547 362.847,212.38 367,200.5C 369.708,195.079 373.875,191.413 379.5,189.5 Z"/></g>
<g><path style="opacity:0.95" fill="#000000" d="M 118.5,276.5 C 139.319,275.469 147.486,285.136 143,305.5C 136.547,315.986 127.38,319.153 115.5,315C 105.014,308.547 101.847,299.38 106,287.5C 108.708,282.079 112.875,278.413 118.5,276.5 Z"/></g>
<g><path style="opacity:0.95" fill="#000000" d="M 205.5,276.5 C 226.319,275.469 234.486,285.136 230,305.5C 223.547,315.986 214.38,319.153 202.5,315C 192.014,308.547 188.847,299.38 193,287.5C 195.708,282.079 199.875,278.413 205.5,276.5 Z"/></g>
<g><path style="opacity:0.973" fill="#000000" d="M 335.5,276.5 C 340.849,275.461 345.349,276.795 349,280.5C 352.527,290.081 355.86,299.748 359,309.5C 359.774,311.939 361.274,313.773 363.5,315C 375.786,316.228 388.119,316.895 400.5,317C 403,318.167 404.833,320 406,322.5C 406.837,326.295 406.504,329.961 405,333.5C 397.282,340.274 389.115,346.441 380.5,352C 376.797,355.396 375.631,359.563 377,364.5C 380.548,373.975 383.381,383.641 385.5,393.5C 384.483,401.852 379.816,405.019 371.5,403C 362.833,397 354.167,391 345.5,385C 342.167,383 338.833,383 335.5,385C 326.833,391 318.167,397 309.5,403C 299,404.5 294.5,400 296,389.5C 298.465,381.105 301.132,372.772 304,364.5C 305.369,359.563 304.203,355.396 300.5,352C 291.885,346.441 283.718,340.274 276,333.5C 274.496,329.961 274.163,326.295 275,322.5C 276.167,320 278,318.167 280.5,317C 291.167,316.667 301.833,316.333 312.5,316C 315.119,315.849 317.453,315.015 319.5,313.5C 323.879,304.199 327.379,294.533 330,284.5C 331.273,281.403 333.107,278.736 335.5,276.5 Z"/></g>
<g><path style="opacity:0.95" fill="#000000" d="M 118.5,363.5 C 139.319,362.469 147.486,372.136 143,392.5C 136.547,402.986 127.38,406.153 115.5,402C 105.014,395.547 101.847,386.38 106,374.5C 108.708,369.079 112.875,365.413 118.5,363.5 Z"/></g>
<g><path style="opacity:0.95" fill="#000000" d="M 205.5,363.5 C 226.319,362.469 234.486,372.136 230,392.5C 223.547,402.986 214.38,406.153 202.5,402C 192.014,395.547 188.847,386.38 193,374.5C 195.708,369.079 199.875,365.413 205.5,363.5 Z"/></g>
</svg>
